<svg xmlns="http://www.w3.org/2000/svg" viewBox="0 0 258.85 54.09"><defs><style>.cls-1{fill:#046b99;}.cls-2{fill:#1c304a;}.cls-3{fill:#00cfff;}.cls-4{fill:#b3efff;}</style></defs><g id="Logo"><rect class="cls-1" x="21.85" y="38.34" width="3" height="3" rx="1.5"/><rect class="cls-1" x="10.85" y="22.34" width="5" height="7" rx="2.5"/><rect class="cls-2" x="24.85" y="8.34" width="4" height="4" rx="2"/><rect class="cls-1" x="30.85" y="8.34" width="4" height="3" rx="1.5"/><rect class="cls-3" x="35.85" y="10.34" width="3" height="4" rx="1.5"/><rect class="cls-1" x="28.85" y="34.34" width="3" height="2" rx="1"/><rect class="cls-3" x="39.85" y="19.34" width="6" height="6" rx="3"/><rect class="cls-2" x="38.85" y="28.34" width="7" height="4" rx="2"/><rect class="cls-4" x="22.85" y="21.34" width="4" height="4" rx="2"/><rect class="cls-4" x="38.85" y="15.34" width="4" height="3" rx="1.5"/><rect class="cls-2" x="30.85" y="29.34" width="2" height="2" rx="1"/><rect class="cls-3" x="28.85" y="24.34" width="1" height="2" rx="0.5"/><rect class="cls-2" x="27.85" y="18.34" width="5" height="5" rx="2.5"/><rect class="cls-1" x="17.85" y="10.34" width="5" height="5" rx="2"/><rect class="cls-3" x="19.85" y="16.34" width="6" height="4" rx="2"/><rect class="cls-4" x="26.85" y="12.91" width="6" height="3.43" rx="1.71"/><rect class="cls-4" x="18.85" y="28.34" width="4" height="4" rx="2"/><rect class="cls-3" x="18.85" y="34.34" width="7" height="3" rx="1.5"/><rect class="cls-1" x="24.85" y="27.34" width="5" height="6" rx="2.5"/><rect class="cls-3" x="32.85" y="31.34" width="5" height="4" rx="2"/><rect class="cls-1" x="39.85" y="33.34" width="2" height="5" rx="1"/><rect class="cls-1" x="33.85" y="16.34" width="4" height="6" rx="2"/><rect class="cls-4" x="31.85" y="24.34" width="7" height="4.33" rx="2.17"/><rect class="cls-2" x="17.85" y="21.34" width="3" height="6" rx="1.5"/><rect class="cls-2" x="34.85" y="37.34" width="4" height="3" rx="1.5"/><rect class="cls-2" x="12.85" y="17.34" width="3" height="3" rx="1.5"/><rect class="cls-4" x="26.75" y="37.34" width="6" height="6" rx="3"/><rect class="cls-2" x="13.85" y="31.34" width="3" height="4" rx="1.5"/></g><g id="Text"><path class="cls-1" d="M54.59,9.79h5.33a5.93,5.93,0,0,1,2.56.51,4.56,4.56,0,0,1,1.76,1.38,5.76,5.76,0,0,1,1,2,9.63,9.63,0,0,1,0,5,5.89,5.89,0,0,1-1,2.05,4.63,4.63,0,0,1-1.76,1.37,5.93,5.93,0,0,1-2.56.51H54.59Zm2.25,11h2.22a5.72,5.72,0,0,0,2.15-.35,3.13,3.13,0,0,0,1.31-1A3.47,3.47,0,0,0,63.17,18a9.72,9.72,0,0,0,0-3.62A3.47,3.47,0,0,0,62.52,13a3.22,3.22,0,0,0-1.31-1,5.72,5.72,0,0,0-2.15-.35H56.84Z"/><path class="cls-1" d="M68.9,18.52a3.39,3.39,0,0,0,.16,1.05,2.47,2.47,0,0,0,.46.88,2.19,2.19,0,0,0,.77.6,2.54,2.54,0,0,0,1.12.23,2.41,2.41,0,0,0,1.44-.39,2.25,2.25,0,0,0,.82-1.16h2a4.06,4.06,0,0,1-.56,1.35,3.78,3.78,0,0,1-1,1,4.21,4.21,0,0,1-1.26.61,5.28,5.28,0,0,1-3.39-.15,4.08,4.08,0,0,1-1.43-1A4.29,4.29,0,0,1,67.15,20a6.23,6.23,0,0,1-.3-2,5.62,5.62,0,0,1,.32-1.88,4.83,4.83,0,0,1,.9-1.56,4.42,4.42,0,0,1,1.41-1.08,4.34,4.34,0,0,1,1.87-.39,4.12,4.12,0,0,1,2,.46,4.27,4.27,0,0,1,1.45,1.21,5,5,0,0,1,.84,1.74,5.26,5.26,0,0,1,.13,2Zm4.79-1.35a3,3,0,0,0-.21-.93,2.49,2.49,0,0,0-.46-.79,2.43,2.43,0,0,0-.72-.54,2.24,2.24,0,0,0-1-.2,2.41,2.41,0,0,0-1,.19,2.24,2.24,0,0,0-.76.52,2.61,2.61,0,0,0-.5.78,2.85,2.85,0,0,0-.21,1Z"/><path class="cls-1" d="M77.11,16.78h5.24v1.94H77.11Z"/><path class="cls-1" d="M84.31,13.34h1.93v1.8h0a2.17,2.17,0,0,1,.35-.74,3.62,3.62,0,0,1,.64-.66,3.24,3.24,0,0,1,.81-.47,2.47,2.47,0,0,1,.92-.18,3.06,3.06,0,0,1,.5,0l.28,0v2l-.45-.06a3.25,3.25,0,0,0-.44,0,2.37,2.37,0,0,0-1,.21,2.34,2.34,0,0,0-.8.61,2.9,2.9,0,0,0-.54,1,4.39,4.39,0,0,0-.2,1.37v4.43h-2Z"/><path class="cls-1" d="M90.7,9.79h2v2h-2Zm0,3.55h2v9.31h-2Z"/><path class="cls-1" d="M96.53,19.66a1.54,1.54,0,0,0,.69,1.26,2.68,2.68,0,0,0,1.42.36,5.73,5.73,0,0,0,.66-.05,2.68,2.68,0,0,0,.69-.17,1.19,1.19,0,0,0,.53-.37,1,1,0,0,0-.1-1.28,2,2,0,0,0-.69-.41,6.6,6.6,0,0,0-1-.26l-1.1-.23a11.17,11.17,0,0,1-1.11-.31,3.42,3.42,0,0,1-1-.49,2.14,2.14,0,0,1-.68-.78,2.48,2.48,0,0,1-.25-1.18,2.1,2.1,0,0,1,.37-1.27,2.86,2.86,0,0,1,.93-.83,4.58,4.58,0,0,1,1.26-.44,7.91,7.91,0,0,1,1.33-.12,6.06,6.06,0,0,1,1.37.15,3.62,3.62,0,0,1,1.19.5,2.8,2.8,0,0,1,.89.89,3.08,3.08,0,0,1,.44,1.32h-2.15a1.27,1.27,0,0,0-.67-1,2.8,2.8,0,0,0-1.22-.25l-.51,0a2.55,2.55,0,0,0-.56.14,1.21,1.21,0,0,0-.44.29.67.67,0,0,0-.18.49.79.79,0,0,0,.26.61,2,2,0,0,0,.69.39,6.6,6.6,0,0,0,1,.26l1.12.24a10.34,10.34,0,0,1,1.09.3,3.54,3.54,0,0,1,1,.49,2.29,2.29,0,0,1,.68.77,2.38,2.38,0,0,1,.26,1.15,2.46,2.46,0,0,1-.38,1.41,3,3,0,0,1-1,.93,4.52,4.52,0,0,1-1.34.53,7.33,7.33,0,0,1-1.46.16A6.36,6.36,0,0,1,97,22.7a3.71,3.71,0,0,1-1.3-.6,2.91,2.91,0,0,1-.87-1,3.18,3.18,0,0,1-.33-1.43Z"/><path class="cls-1" d="M104.38,9.79h2.05V17.1l3.71-3.76h2.52l-3.56,3.42,3.9,5.89h-2.5l-2.84-4.52-1.23,1.19v3.33h-2.05Z"/><path class="cls-1" d="M114.05,9.79h2v2h-2Zm0,3.55h2v9.31h-2Z"/><path class="cls-1" d="M118.33,13.34h2v1.37l0,0a3.4,3.4,0,0,1,1.23-1.21,3.28,3.28,0,0,1,1.67-.44,3.47,3.47,0,0,1,2.41.79,3,3,0,0,1,.88,2.38v6.39h-2V16.8a2.5,2.5,0,0,0-.47-1.6,1.68,1.68,0,0,0-1.35-.49,2.15,2.15,0,0,0-.93.19,1.92,1.92,0,0,0-.7.52,2.16,2.16,0,0,0-.45.78,2.77,2.77,0,0,0-.17,1v5.49h-2Z"/><path class="cls-1" d="M137.27,22.16a4,4,0,0,1-1.18,3.14,5,5,0,0,1-3.4,1,6.9,6.9,0,0,1-1.41-.15,4.24,4.24,0,0,1-1.29-.48,3.27,3.27,0,0,1-1-.9,2.73,2.73,0,0,1-.46-1.37h2.05a1.67,1.67,0,0,0,.3.7,1.61,1.61,0,0,0,.52.42,2,2,0,0,0,.65.2,6.19,6.19,0,0,0,.76,0,2.4,2.4,0,0,0,1.82-.62,2.47,2.47,0,0,0,.57-1.76V21h0a3.09,3.09,0,0,1-1.18,1.2,3.17,3.17,0,0,1-1.61.44,4.21,4.21,0,0,1-1.9-.39,3.73,3.73,0,0,1-1.3-1.06,4.33,4.33,0,0,1-.74-1.56,7.2,7.2,0,0,1-.24-1.89A5.53,5.53,0,0,1,128.5,16a4.52,4.52,0,0,1,.83-1.49,4,4,0,0,1,1.32-1,3.9,3.9,0,0,1,1.77-.38,3.51,3.51,0,0,1,1.62.37,2.47,2.47,0,0,1,1.14,1.16h0V13.34h2.06ZM132.71,21a2.2,2.2,0,0,0,1.94-1,3.22,3.22,0,0,0,.43-1,5.33,5.33,0,0,0,.13-1.18,4.49,4.49,0,0,0-.14-1.16,3.18,3.18,0,0,0-.44-1,2.29,2.29,0,0,0-.77-.68,2.41,2.41,0,0,0-1.15-.25,2.09,2.09,0,0,0-1.15.29,2.44,2.44,0,0,0-.76.74,3.24,3.24,0,0,0-.41,1,5.73,5.73,0,0,0-.13,1.16,4.2,4.2,0,0,0,.15,1.12,2.83,2.83,0,0,0,.44,1,2.35,2.35,0,0,0,.76.71A2.11,2.11,0,0,0,132.71,21Z"/><path class="cls-1" d="M155.84,22.65H154.4l-.34-1.52a5.38,5.38,0,0,1-1.8,1.43,5.16,5.16,0,0,1-2.07.39,6,6,0,0,1-2.58-.53A5.72,5.72,0,0,1,145.67,21a6.33,6.33,0,0,1-1.21-2.14,8,8,0,0,1-.43-2.61,7.91,7.91,0,0,1,.43-2.59,6.33,6.33,0,0,1,1.21-2.14A5.74,5.74,0,0,1,147.61,10a6,6,0,0,1,2.58-.54,6.84,6.84,0,0,1,2,.28,5.08,5.08,0,0,1,1.68.83A4.64,4.64,0,0,1,155.09,12a5,5,0,0,1,.61,1.91h-2.2A2.7,2.7,0,0,0,152.37,12a3.25,3.25,0,0,0-1-.48,4.09,4.09,0,0,0-1.17-.17,3.56,3.56,0,0,0-1.77.42,3.34,3.34,0,0,0-1.22,1.11,5,5,0,0,0-.69,1.57,7.16,7.16,0,0,0,0,3.6,5.12,5.12,0,0,0,.69,1.58,3.4,3.4,0,0,0,1.22,1.1,3.56,3.56,0,0,0,1.77.42,4.25,4.25,0,0,0,1.53-.23,3.18,3.18,0,0,0,1.13-.7,3.07,3.07,0,0,0,.69-1.13,4.81,4.81,0,0,0,.25-1.47h-3.42V15.88h5.47Z"/><path class="cls-1" d="M162.27,22.9a5,5,0,0,1-2-.37,4.45,4.45,0,0,1-1.48-1,4.35,4.35,0,0,1-.91-1.55,6.22,6.22,0,0,1,0-3.94,4.44,4.44,0,0,1,.91-1.55,4.28,4.28,0,0,1,1.48-1,5.54,5.54,0,0,1,4,0,4.15,4.15,0,0,1,1.47,1,4.32,4.32,0,0,1,.92,1.55,6.22,6.22,0,0,1,0,3.94,4.23,4.23,0,0,1-.92,1.55,4.31,4.31,0,0,1-1.47,1A5,5,0,0,1,162.27,22.9Zm0-1.62a2.33,2.33,0,0,0,2-1.05,3.15,3.15,0,0,0,.48-1.05,4.8,4.8,0,0,0,0-2.38,3.11,3.11,0,0,0-.48-1.06,2.54,2.54,0,0,0-.82-.74,2.31,2.31,0,0,0-1.19-.29,2.28,2.28,0,0,0-1.19.29,2.57,2.57,0,0,0-.83.74,3.54,3.54,0,0,0-.48,1.06,4.8,4.8,0,0,0,0,2.38,3.6,3.6,0,0,0,.48,1.05,2.42,2.42,0,0,0,.83.76A2.38,2.38,0,0,0,162.27,21.28Z"/><path class="cls-1" d="M167.76,13.34H170l2.36,7.15h0l2.27-7.15h2.13l-3.33,9.31h-2.31Z"/><path class="cls-1" d="M179.62,18.52a3.7,3.7,0,0,0,.15,1.05,2.64,2.64,0,0,0,.46.88,2.23,2.23,0,0,0,.78.6,2.53,2.53,0,0,0,1.11.23,2.46,2.46,0,0,0,1.45-.39,2.25,2.25,0,0,0,.82-1.16h1.94a3.84,3.84,0,0,1-.55,1.35,4,4,0,0,1-1,1,4.15,4.15,0,0,1-1.25.61,5.28,5.28,0,0,1-3.39-.15,4,4,0,0,1-1.43-1,4.31,4.31,0,0,1-.89-1.55,6.53,6.53,0,0,1-.29-2,5.62,5.62,0,0,1,.31-1.88,4.83,4.83,0,0,1,.9-1.56,4.19,4.19,0,0,1,3.29-1.47,4.12,4.12,0,0,1,2,.46,4.37,4.37,0,0,1,1.45,1.21,5,5,0,0,1,.83,1.74,5.26,5.26,0,0,1,.14,2Zm4.79-1.35a3.69,3.69,0,0,0-.21-.93,2.51,2.51,0,0,0-.47-.79,2.43,2.43,0,0,0-.72-.54,2.2,2.2,0,0,0-.94-.2,2.38,2.38,0,0,0-1,.19,2.14,2.14,0,0,0-.76.52,2.43,2.43,0,0,0-.5.78,2.63,2.63,0,0,0-.21,1Z"/><path class="cls-1" d="M188,13.34H190v1.8h0a2,2,0,0,1,.35-.74,3.26,3.26,0,0,1,.63-.66,3.3,3.3,0,0,1,.82-.47,2.43,2.43,0,0,1,.92-.18,2.92,2.92,0,0,1,.49,0l.28,0v2l-.44-.06-.44,0a2.3,2.3,0,0,0-1,.21,2.17,2.17,0,0,0-.8.61,2.9,2.9,0,0,0-.54,1,4.12,4.12,0,0,0-.2,1.37v4.43H188Z"/><path class="cls-1" d="M194.69,13.34h1.94v1.37l0,0a3.45,3.45,0,0,1,1.22-1.21,3.28,3.28,0,0,1,1.67-.44,3.49,3.49,0,0,1,2.42.79,3.06,3.06,0,0,1,.88,2.38v6.39h-2.05V16.8a2.56,2.56,0,0,0-.47-1.6,1.7,1.7,0,0,0-1.35-.49,2.19,2.19,0,0,0-.94.19,2,2,0,0,0-.7.52,2.49,2.49,0,0,0-.45.78,2.76,2.76,0,0,0-.16,1v5.49h-2.05Z"/><path class="cls-1" d="M205,13.34H207v1.3H207a4.47,4.47,0,0,1,.5-.63,2.53,2.53,0,0,1,.6-.49,3.36,3.36,0,0,1,.77-.32,4.22,4.22,0,0,1,1-.11,3.25,3.25,0,0,1,1.57.38,2.14,2.14,0,0,1,1,1.17,4.31,4.31,0,0,1,1.2-1.14,3.33,3.33,0,0,1,1.71-.41,3.37,3.37,0,0,1,2.3.72,3.09,3.09,0,0,1,.82,2.41v6.43h-2.05V17.21c0-.37,0-.71,0-1a1.92,1.92,0,0,0-.21-.79,1.14,1.14,0,0,0-.51-.51,2,2,0,0,0-.94-.18,1.72,1.72,0,0,0-1.51.65,3.09,3.09,0,0,0-.47,1.83v5.46h-2v-6a2.57,2.57,0,0,0-.35-1.47,1.47,1.47,0,0,0-1.29-.49,1.82,1.82,0,0,0-.76.16,1.87,1.87,0,0,0-.65.47,2.14,2.14,0,0,0-.45.75,3,3,0,0,0-.17,1v5.53h-2Z"/><path class="cls-1" d="M222.28,18.52a3.7,3.7,0,0,0,.15,1.05,2.64,2.64,0,0,0,.46.88,2.23,2.23,0,0,0,.78.6,2.53,2.53,0,0,0,1.11.23,2.46,2.46,0,0,0,1.45-.39,2.25,2.25,0,0,0,.82-1.16H229a3.68,3.68,0,0,1-.56,1.35,3.78,3.78,0,0,1-1,1,4.15,4.15,0,0,1-1.25.61,5.28,5.28,0,0,1-3.39-.15,4,4,0,0,1-1.43-1,4.31,4.31,0,0,1-.89-1.55,6.53,6.53,0,0,1-.29-2,5.62,5.62,0,0,1,.31-1.88,4.83,4.83,0,0,1,.9-1.56,4.15,4.15,0,0,1,3.29-1.47,4.12,4.12,0,0,1,2,.46,4.37,4.37,0,0,1,1.45,1.21A5,5,0,0,1,229,16.5a5.26,5.26,0,0,1,.14,2Zm4.79-1.35a3.69,3.69,0,0,0-.21-.93,2.51,2.51,0,0,0-.47-.79,2.43,2.43,0,0,0-.72-.54,2.23,2.23,0,0,0-.94-.2,2.38,2.38,0,0,0-1,.19,2.14,2.14,0,0,0-.76.52,2.43,2.43,0,0,0-.5.78,2.63,2.63,0,0,0-.21,1Z"/><path class="cls-1" d="M230.69,13.34h1.94v1.37l0,0a3.45,3.45,0,0,1,1.22-1.21,3.28,3.28,0,0,1,1.67-.44,3.49,3.49,0,0,1,2.42.79,3.06,3.06,0,0,1,.88,2.38v6.39h-2.05V16.8a2.56,2.56,0,0,0-.47-1.6,1.7,1.7,0,0,0-1.35-.49,2.19,2.19,0,0,0-.94.19,2,2,0,0,0-.7.52,2.49,2.49,0,0,0-.45.78,2.76,2.76,0,0,0-.16,1v5.49h-2.05Z"/><path class="cls-1" d="M240.08,13.34h1.55V10.55h2.05v2.79h1.85v1.53h-1.85v5a4.61,4.61,0,0,0,0,.56,1.12,1.12,0,0,0,.12.39.6.6,0,0,0,.3.24,1.32,1.32,0,0,0,.54.09h.43a2,2,0,0,0,.43-.07v1.59l-.66.07c-.22,0-.44,0-.67,0a4.21,4.21,0,0,1-1.3-.16,1.75,1.75,0,0,1-.78-.45,1.48,1.48,0,0,1-.37-.74,5.2,5.2,0,0,1-.12-1V14.87h-1.55Z"/><path class="cls-1" d="M53.37,30.79h10.4v2H59.69V43.65H57.44V32.74H53.37Z"/><path class="cls-1" d="M64.58,39.52a3.39,3.39,0,0,0,.16,1,2.47,2.47,0,0,0,.46.88,2.19,2.19,0,0,0,.77.6,2.54,2.54,0,0,0,1.12.23,2.41,2.41,0,0,0,1.44-.39,2.25,2.25,0,0,0,.82-1.16h2a4.06,4.06,0,0,1-.56,1.35,3.78,3.78,0,0,1-.95,1,4.21,4.21,0,0,1-1.26.61,5.28,5.28,0,0,1-3.39-.15,4.08,4.08,0,0,1-1.43-1A4.29,4.29,0,0,1,62.83,41a6.23,6.23,0,0,1-.3-2,5.62,5.62,0,0,1,.32-1.88,4.83,4.83,0,0,1,.9-1.56,4.42,4.42,0,0,1,1.41-1.08A4.34,4.34,0,0,1,67,34.09a4.12,4.12,0,0,1,2,.46,4.27,4.27,0,0,1,1.45,1.21,5,5,0,0,1,.84,1.74,5.26,5.26,0,0,1,.13,2Zm4.79-1.35a3,3,0,0,0-.21-.93,2.69,2.69,0,0,0-.46-.79,2.43,2.43,0,0,0-.72-.54,2.28,2.28,0,0,0-1-.2,2.41,2.41,0,0,0-1,.19,2.24,2.24,0,0,0-.76.52,2.61,2.61,0,0,0-.5.78,2.85,2.85,0,0,0-.21,1Z"/><path class="cls-1" d="M79.27,37.45a1.89,1.89,0,0,0-.69-1.3,2.3,2.3,0,0,0-1.43-.44,2.93,2.93,0,0,0-.85.13,2,2,0,0,0-.83.51,2.87,2.87,0,0,0-.63,1,5.09,5.09,0,0,0-.25,1.72,5,5,0,0,0,.14,1.15,3.07,3.07,0,0,0,.43,1,2.41,2.41,0,0,0,.76.73,2.17,2.17,0,0,0,1.14.28,2.06,2.06,0,0,0,1.48-.56,2.55,2.55,0,0,0,.73-1.57h2A4.55,4.55,0,0,1,80,42.94a4.22,4.22,0,0,1-2.89,1,4.73,4.73,0,0,1-1.94-.37,4,4,0,0,1-1.41-1A4.15,4.15,0,0,1,72.84,41a5.88,5.88,0,0,1-.3-1.91,6.59,6.59,0,0,1,.29-2,4.52,4.52,0,0,1,.86-1.59,4,4,0,0,1,1.43-1.06,4.81,4.81,0,0,1,2-.39,5.56,5.56,0,0,1,1.54.21,3.77,3.77,0,0,1,1.29.62,3.21,3.21,0,0,1,.93,1,3.47,3.47,0,0,1,.43,1.49Z"/><path class="cls-1" d="M83,30.79h2v4.77h0a2.92,2.92,0,0,1,1.12-1.05,3.34,3.34,0,0,1,1.67-.42,3.48,3.48,0,0,1,2.41.79,3,3,0,0,1,.88,2.38v6.39h-2V37.8a2.56,2.56,0,0,0-.47-1.6,1.7,1.7,0,0,0-1.35-.49,2.19,2.19,0,0,0-.94.19,2,2,0,0,0-.7.52,2.49,2.49,0,0,0-.45.78,2.76,2.76,0,0,0-.16,1v5.49H83Z"/><path class="cls-1" d="M93.33,34.34h1.94v1.37l0,0a3.45,3.45,0,0,1,1.22-1.21,3.34,3.34,0,0,1,1.68-.44,3.47,3.47,0,0,1,2.41.79,3,3,0,0,1,.88,2.38v6.39h-2V37.8A2.5,2.5,0,0,0,99,36.2a1.7,1.7,0,0,0-1.35-.49,2.12,2.12,0,0,0-.93.19,2,2,0,0,0-.71.52,2.49,2.49,0,0,0-.45.78,2.76,2.76,0,0,0-.16,1v5.49h-2Z"/><path class="cls-1" d="M107.93,43.9a5,5,0,0,1-2-.37,4.2,4.2,0,0,1-2.4-2.57,6.41,6.41,0,0,1,0-3.94,4.46,4.46,0,0,1,.92-1.55,4.19,4.19,0,0,1,1.48-1,5,5,0,0,1,2-.37,5,5,0,0,1,2,.37,4.15,4.15,0,0,1,1.47,1,4.46,4.46,0,0,1,.92,1.55,6.22,6.22,0,0,1,0,3.94,4.37,4.37,0,0,1-.92,1.55,4.31,4.31,0,0,1-1.47,1A5,5,0,0,1,107.93,43.9Zm0-1.62a2.33,2.33,0,0,0,2-1.05,3.15,3.15,0,0,0,.48-1,4.8,4.8,0,0,0,0-2.38,3.11,3.11,0,0,0-.48-1.06,2.54,2.54,0,0,0-.82-.74,2.31,2.31,0,0,0-1.19-.29,2.28,2.28,0,0,0-1.19.29,2.57,2.57,0,0,0-.83.74,3.54,3.54,0,0,0-.48,1.06,4.8,4.8,0,0,0,0,2.38,3.6,3.6,0,0,0,.48,1,2.42,2.42,0,0,0,.83.76A2.38,2.38,0,0,0,107.93,42.28Z"/><path class="cls-1" d="M114.39,30.79h2V43.65h-2Z"/><path class="cls-1" d="M122.94,43.9a5,5,0,0,1-2-.37,4.45,4.45,0,0,1-1.48-1,4.35,4.35,0,0,1-.91-1.55,6.22,6.22,0,0,1,0-3.94,4.44,4.44,0,0,1,.91-1.55,4.28,4.28,0,0,1,1.48-1,5.54,5.54,0,0,1,4,0,4.15,4.15,0,0,1,1.47,1,4.32,4.32,0,0,1,.92,1.55,6.22,6.22,0,0,1,0,3.94,4.23,4.23,0,0,1-.92,1.55,4.31,4.31,0,0,1-1.47,1A5,5,0,0,1,122.94,43.9Zm0-1.62a2.41,2.41,0,0,0,1.19-.29,2.51,2.51,0,0,0,.83-.76,3.34,3.34,0,0,0,.47-1,4.51,4.51,0,0,0,0-2.38,3.29,3.29,0,0,0-.47-1.06,2.68,2.68,0,0,0-.83-.74,2.31,2.31,0,0,0-1.19-.29,2.28,2.28,0,0,0-1.19.29,2.68,2.68,0,0,0-.83.74,3.29,3.29,0,0,0-.47,1.06,4.51,4.51,0,0,0,0,2.38,3.34,3.34,0,0,0,.47,1,2.51,2.51,0,0,0,.83.76A2.38,2.38,0,0,0,122.94,42.28Z"/><path class="cls-1" d="M138,43.16a4,4,0,0,1-1.18,3.14,5,5,0,0,1-3.39,1,6.76,6.76,0,0,1-1.41-.15,4.21,4.21,0,0,1-1.3-.48,3.12,3.12,0,0,1-1-.9,2.83,2.83,0,0,1-.47-1.37h2.05a1.56,1.56,0,0,0,.31.7,1.48,1.48,0,0,0,.51.42,2,2,0,0,0,.66.2,6.06,6.06,0,0,0,.76.05,2.37,2.37,0,0,0,1.81-.62,2.43,2.43,0,0,0,.58-1.76V42h0a3.22,3.22,0,0,1-2.79,1.64,4.26,4.26,0,0,1-1.9-.39,3.61,3.61,0,0,1-1.29-1.06,4.52,4.52,0,0,1-.75-1.56,7.65,7.65,0,0,1-.23-1.89,5.53,5.53,0,0,1,.28-1.78,4.7,4.7,0,0,1,.83-1.49,4,4,0,0,1,1.33-1,3.9,3.9,0,0,1,1.77-.38,3.51,3.51,0,0,1,1.62.37,2.45,2.45,0,0,1,1.13,1.16h0V34.34h2ZM133.4,42a2.34,2.34,0,0,0,1.16-.28,2.27,2.27,0,0,0,.77-.74,3.22,3.22,0,0,0,.43-1,5.35,5.35,0,0,0,.14-1.18,5,5,0,0,0-.14-1.16,3.2,3.2,0,0,0-.45-1,2.12,2.12,0,0,0-.77-.68,2.4,2.4,0,0,0-1.14-.25,2.13,2.13,0,0,0-1.16.29,2.31,2.31,0,0,0-.75.74,3.5,3.5,0,0,0-.42,1A5.71,5.71,0,0,0,131,39a4.64,4.64,0,0,0,.14,1.12,3.25,3.25,0,0,0,.44,1,2.35,2.35,0,0,0,.76.71A2.17,2.17,0,0,0,133.4,42Z"/><path class="cls-1" d="M139,34.34h2.25l2.44,6.95h0l2.36-6.95h2.14l-3.62,9.81-.49,1.21a4,4,0,0,1-.6,1,2.39,2.39,0,0,1-.87.7,2.89,2.89,0,0,1-1.33.27,9.6,9.6,0,0,1-1.42-.11V45.5l.48.08a2.63,2.63,0,0,0,.49.05,1.63,1.63,0,0,0,.59-.09,1,1,0,0,0,.39-.26,1.69,1.69,0,0,0,.26-.41,4.75,4.75,0,0,0,.2-.54l.23-.72Z"/></g></svg>