<svg xmlns="http://www.w3.org/2000/svg" viewBox="0 0 500 500"><defs><style>.cls-1{fill:#1c304a;}.cls-2{fill:#fff;}</style></defs><g id="Layer_2" data-name="Layer 2"><g id="Layer_1-2" data-name="Layer 1"><path class="cls-1" d="M250,30a220.06,220.06,0,0,1,85.62,422.72A220.06,220.06,0,0,1,164.38,47.28,218.46,218.46,0,0,1,250,30m0-30C111.93,0,0,111.93,0,250S111.93,500,250,500,500,388.07,500,250,388.07,0,250,0Z"/><circle class="cls-1" cx="250" cy="250" r="187"/><polygon class="cls-2" points="212.37 151.82 196.76 152.03 175.28 151.82 233.39 116.29 262.6 116.36 287.8 202.24 200.01 202.24 212.37 151.82"/><polygon class="cls-2" points="291.74 350.43 208.51 350.43 215.6 311.46 284.64 311.46 291.74 350.43"/><polygon class="cls-2" points="417.55 190.12 250 190.12 82.45 190.12 85.93 197.9 152.65 217.48 94.55 217.19 99.84 229.03 156.18 245.56 107.13 245.32 112.83 258.1 159.47 271.78 118.86 271.58 124.93 285.15 215.03 311.46 250 311.46 284.97 311.46 375.07 285.15 381.14 271.58 340.53 271.78 387.17 258.1 392.88 245.32 343.82 245.56 400.16 229.03 405.45 217.19 347.35 217.48 414.07 197.9 417.55 190.12"/><polygon class="cls-2" points="253.25 397.8 339.81 190.12 160.19 190.12 253.25 397.8"/><path class="cls-2" d="M262.26,307.25a1.5,1.5,0,0,0,0-3,1.5,1.5,0,0,0,0,3Z"/></g></g></svg>