<svg id="Logo" xmlns="http://www.w3.org/2000/svg" viewBox="0 0 414 372"><defs><style>.cls-1{fill:#046b99;}.cls-2{fill:#f1f1f1;}.cls-3{fill:#00cfff;}.cls-4{fill:#b3efff;}</style></defs><rect class="cls-1" x="137.99" y="317.92" width="31.75" height="31.75" rx="15.88"/><rect class="cls-1" x="21.57" y="148.58" width="52.92" height="74.09" rx="26.46"/><rect class="cls-2" x="169.74" y="0.41" width="42.33" height="42.33" rx="21.17"/><rect class="cls-1" x="233.24" y="0.41" width="42.33" height="31.75" rx="15.88"/><rect class="cls-3" x="286.16" y="21.58" width="31.75" height="42.33" rx="15.88"/><rect class="cls-1" x="212.08" y="275.59" width="31.75" height="21.17" rx="10.58"/><rect class="cls-3" x="328.5" y="116.83" width="63.5" height="63.5" rx="31.75"/><rect class="cls-2" x="317.91" y="212.08" width="74.09" height="42.33" rx="21.17"/><rect class="cls-4" x="148.57" y="138" width="42.33" height="42.33" rx="21.17"/><rect class="cls-4" x="317.91" y="74.5" width="42.33" height="31.75" rx="15.88"/><rect class="cls-2" x="233.24" y="222.67" width="21.17" height="21.17" rx="10.58"/><rect class="cls-3" x="212.08" y="169.75" width="10.58" height="21.17" rx="5.29"/><rect class="cls-2" x="201.49" y="106.25" width="52.92" height="52.92" rx="26.46"/><rect class="cls-1" x="95.66" y="21.58" width="52.92" height="52.92" rx="21.17"/><rect class="cls-3" x="116.82" y="85.08" width="63.5" height="42.33" rx="21.17"/><rect class="cls-4" x="190.91" y="48.79" width="63.5" height="36.29" rx="18.14"/><rect class="cls-4" x="106.24" y="212.08" width="42.33" height="42.33" rx="21.17"/><rect class="cls-3" x="106.24" y="275.59" width="74.09" height="31.75" rx="15.88"/><rect class="cls-1" x="169.74" y="201.5" width="52.92" height="63.5" rx="26.46"/><rect class="cls-3" x="254.41" y="243.83" width="52.92" height="42.33" rx="21.17"/><rect class="cls-1" x="328.5" y="265" width="21.17" height="52.92" rx="10.58"/><rect class="cls-1" x="265" y="85.08" width="42.33" height="63.5" rx="21.17"/><rect class="cls-4" x="243.83" y="169.75" width="74.09" height="45.86" rx="22.93"/><rect class="cls-2" x="95.66" y="138" width="31.75" height="63.5" rx="15.88"/><rect class="cls-2" x="275.58" y="307.34" width="42.33" height="31.75" rx="15.88"/><rect class="cls-2" x="42.74" y="95.66" width="31.75" height="31.75" rx="15.88"/><rect class="cls-4" x="189.85" y="307.34" width="63.5" height="63.5" rx="31.75"/><rect class="cls-2" x="53.32" y="243.83" width="31.75" height="42.33" rx="15.88"/></svg>