<svg xmlns="http://www.w3.org/2000/svg" viewBox="0 0 100 100"><defs><style>.cls-1{fill:#046b99;}.cls-2{fill:#1c304a;}.cls-3{fill:#00cfff;}.cls-4{fill:#b3efff;}</style></defs><g id="Logo"><rect class="cls-1" x="35.87" y="77.17" width="6.52" height="6.52" rx="3.26"/><rect class="cls-1" x="11.97" y="42.39" width="10.87" height="15.21" rx="5.43"/><rect class="cls-2" x="42.39" y="11.97" width="8.69" height="8.69" rx="4.35"/><rect class="cls-1" x="55.43" y="11.97" width="8.69" height="6.52" rx="3.26"/><rect class="cls-3" x="66.3" y="16.31" width="6.52" height="8.69" rx="3.26"/><rect class="cls-1" x="51.09" y="68.47" width="6.52" height="4.35" rx="2.17"/><rect class="cls-3" x="74.99" y="35.87" width="13.04" height="13.04" rx="6.52"/><rect class="cls-2" x="72.82" y="55.43" width="15.21" height="8.69" rx="4.35"/><rect class="cls-4" x="38.05" y="40.22" width="8.69" height="8.69" rx="4.35"/><rect class="cls-4" x="72.82" y="27.18" width="8.69" height="6.52" rx="3.26"/><rect class="cls-2" x="55.43" y="57.61" width="4.35" height="4.35" rx="2.17"/><rect class="cls-3" x="51.09" y="46.74" width="2.17" height="4.35" rx="1.09"/><rect class="cls-2" x="48.91" y="33.7" width="10.87" height="10.87" rx="5.43"/><rect class="cls-1" x="27.18" y="16.31" width="10.87" height="10.87" rx="4.35"/><rect class="cls-3" x="31.53" y="29.35" width="13.04" height="8.69" rx="4.35"/><rect class="cls-4" x="46.74" y="21.9" width="13.04" height="7.45" rx="3.73"/><rect class="cls-4" x="29.35" y="55.43" width="8.69" height="8.69" rx="4.35"/><rect class="cls-3" x="29.35" y="68.47" width="15.21" height="6.52" rx="3.26"/><rect class="cls-1" x="42.39" y="53.26" width="10.87" height="13.04" rx="5.43"/><rect class="cls-3" x="59.78" y="61.95" width="10.87" height="8.69" rx="4.35"/><rect class="cls-1" x="74.99" y="66.3" width="4.35" height="10.87" rx="2.17"/><rect class="cls-1" x="61.95" y="29.35" width="8.69" height="13.04" rx="4.35"/><rect class="cls-4" x="57.61" y="46.74" width="15.21" height="9.42" rx="4.71"/><rect class="cls-2" x="27.18" y="40.22" width="6.52" height="13.04" rx="3.26"/><rect class="cls-2" x="64.13" y="74.99" width="8.69" height="6.52" rx="3.26"/><rect class="cls-2" x="16.31" y="31.53" width="6.52" height="6.52" rx="3.26"/><rect class="cls-4" x="46.52" y="74.99" width="13.04" height="13.04" rx="6.52"/><rect class="cls-2" x="18.49" y="61.95" width="6.52" height="8.69" rx="3.26"/></g></svg>