<svg xmlns="http://www.w3.org/2000/svg" viewBox="0 0 500 500"><defs><style>.cls-1{fill:#1c304a;}.cls-2{fill:#fff;}</style></defs><g id="Layer_2" data-name="Layer 2"><g id="Isolation_Mode" data-name="Isolation Mode"><path class="cls-1" d="M250,30a220.06,220.06,0,0,1,85.62,422.72A220.06,220.06,0,0,1,164.38,47.28,218.46,218.46,0,0,1,250,30m0-30C111.93,0,0,111.93,0,250S111.93,500,250,500,500,388.07,500,250,388.07,0,250,0Z"/><circle class="cls-1" cx="250" cy="250" r="187"/><path class="cls-2" d="M262.26,307.25a1.5,1.5,0,0,0,0-3,1.5,1.5,0,0,0,0,3Z"/><rect class="cls-2" x="180.73" y="228.22" width="141.63" height="70.82"/><circle class="cls-2" cx="251.55" cy="228.22" r="70.82"/><rect class="cls-2" x="153.94" y="228.22" width="190.25" height="45.8"/><rect class="cls-2" x="123.22" y="273.1" width="251.68" height="69.73"/><rect class="cls-2" x="242.77" y="146.2" width="18.35" height="23.16"/><rect class="cls-2" x="249.87" y="127.11" width="3.51" height="22.19"/><rect class="cls-2" x="249.87" y="105.72" width="41.86" height="25.29"/><rect class="cls-1" x="164.83" y="221.68" width="170.08" height="6.54"/><rect class="cls-1" x="160.35" y="141.69" width="170.08" height="4.5"/><rect class="cls-1" x="138.99" y="266.56" width="223.59" height="6.54"/></g></g></svg>